<svg xmlns="http://www.w3.org/2000/svg" xmlns:xlink="http://www.w3.org/1999/xlink" width="442" height="199" viewBox="0 0 442 199">
  <defs>
    <filter id="Rectangle_33" x="0" y="0" width="442" height="199" filterUnits="userSpaceOnUse">
      <feOffset dy="13" input="SourceAlpha"/>
      <feGaussianBlur stdDeviation="20" result="blur"/>
      <feFlood flood-color="#5e78ee" flood-opacity="0.361"/>
      <feComposite operator="in" in2="blur"/>
      <feComposite in="SourceGraphic"/>
    </filter>
  </defs>
  <g id="_2" data-name="2" transform="translate(-766 -871)">
    <g transform="matrix(1, 0, 0, 1, 766, 871)" filter="url(#Rectangle_33)">
      <rect id="Rectangle_33-2" data-name="Rectangle 33" width="322" height="79" rx="5" transform="translate(60 47)" fill="#fff"/>
    </g>
    <rect id="Rectangle_35" data-name="Rectangle 35" width="140" height="10" rx="4.94" transform="translate(941 936)" fill="#d0d0e4"/>
    <rect id="Rectangle_35_copy" data-name="Rectangle 35 copy" width="95.37" height="9.88" rx="4.94" transform="translate(941 955.78)" fill="#d0d0e4"/>
    <rect id="Rectangle_35_copy_2" data-name="Rectangle 35 copy 2" width="167" height="10" rx="4.95" transform="translate(941 973)" fill="#d0d0e4"/>
    <rect id="Rectangle_34" data-name="Rectangle 34" width="71.94" height="52.09" rx="5" transform="translate(842.53 933.19)" fill="#b2d6f3"/>
    <path id="TICK" d="M894.71,952.261h0L877.6,969.373h0a2.23,2.23,0,0,1-3.156,0h0L864.77,959.7h0a2.232,2.232,0,0,1,3.157-3.156h0l8.094,8.094,15.534-15.533h0a2.232,2.232,0,1,1,3.157,3.156Z" fill="#fff"/>
  </g>
</svg>
